<?xml version="1.0" encoding="utf-8"?>
<!-- Generator: Adobe Illustrator 19.0.0, SVG Export Plug-In . SVG Version: 6.00 Build 0)  -->
<svg version="1.1" id="Warstwa_1" xmlns="http://www.w3.org/2000/svg" xmlns:xlink="http://www.w3.org/1999/xlink" x="0px" y="0px"
	 viewBox="0 0 100 100" style="enable-background:new 0 0 100 100;" xml:space="preserve">
<style type="text/css">
	.st0{fill:#9BAA9B;}
	.st1{opacity:0.37;fill:#777777;}
	.st2{fill:#383838;}
	.st3{fill:#EFCEBC;}
	.st4{fill:#8A8CB5;stroke:#000000;stroke-miterlimit:10;}
	.st5{fill:#455926;}
	.st6{fill:#445925;}
	.st7{fill:#525151;}
</style>
<path id="XMLID_115_" class="st0" d="M96.8,50c0,10.8-3.7,20.7-9.8,28.6c-2.8,3.5-6,6.7-9.6,9.3c-6.5,4.7-14.2,7.7-22.5,8.6
	c-0.2,0-0.4,0-0.6,0c-1.2,0.1-2.3,0.2-3.5,0.2c-0.3,0-0.5,0-0.7,0c-9.4,0-18.2-2.8-25.5-7.6c-3.9-2.6-7.5-5.7-10.5-9.3
	C7.3,71.8,3.3,61.3,3.3,50C3.3,24.2,24.2,3.3,50,3.3c22.5,0,41.3,15.9,45.8,37.1v0c0.1,0.7,0.3,1.4,0.4,2c0.3,1.9,0.5,3.8,0.6,5.7
	C96.7,48.8,96.8,49.4,96.8,50z"/>
<path id="XMLID_58_" class="st1" d="M96.8,50c0,10.8-3.7,20.7-9.8,28.6c-2.8,3.5-6,6.7-9.6,9.3c-6.5,4.7-14.2,7.7-22.5,8.6
	c-0.2,0-0.4,0-0.6,0c-1.2,0.1-2.3,0.2-3.5,0.2L30.6,76.6l24.3-24.3l0.7-0.7l18.6-18.6l6.3-6.3l2.1,2.1l13.6,13.6
	c0.3,1.9,0.5,3.8,0.6,5.7C96.7,48.8,96.8,49.4,96.8,50z"/>
<path id="XMLID_10_" class="st2" d="M76.2,59.1h-0.3c-4.2,0-7.7-3.4-7.7-7.7v0c0-4.2,3.4-7.7,7.7-7.7h0.3c4.2,0,7.7,3.4,7.7,7.7v0
	C83.8,55.6,80.4,59.1,76.2,59.1z"/>
<path id="XMLID_9_" class="st2" d="M21.7,60.4h-0.3c-4.2,0-7.7-3.4-7.7-7.7v0c0-4.2,3.4-7.7,7.7-7.7h0.3c4.2,0,7.7,3.4,7.7,7.7v0
	C29.3,57,25.9,60.4,21.7,60.4z"/>
<ellipse id="XMLID_2_" class="st3" cx="50" cy="52.8" rx="31.6" ry="30.4"/>
<path id="XMLID_1_" class="st2" d="M73.2,47H26.8c-6.3,0-11.5-5.2-11.5-11.5v0c0-6.3,5.2-11.5,11.5-11.5h46.3
	c6.3,0,11.5,5.2,11.5,11.5v0C84.7,41.8,79.5,47,73.2,47z"/>
<path id="XMLID_3_" class="st2" d="M19.7,52.8h-0.3c-4.2,0-7.7-3.4-7.7-7.7v0c0-4.2,3.4-7.7,7.7-7.7h0.3c4.2,0,7.7,3.4,7.7,7.7v0
	C27.3,49.3,23.9,52.8,19.7,52.8z"/>
<path id="XMLID_4_" class="st2" d="M35.3,35.5H35c-4.2,0-7.7-3.4-7.7-7.7v0c0-4.2,3.4-7.7,7.7-7.7h0.3c4.2,0,7.7,3.4,7.7,7.7v0
	C43,32.1,39.6,35.5,35.3,35.5z"/>
<path id="XMLID_5_" class="st2" d="M45.8,32.4h-0.3c-4.2,0-7.7-3.4-7.7-7.7v0c0-4.2,3.4-7.7,7.7-7.7h0.3c4.2,0,7.7,3.4,7.7,7.7v0
	C53.5,29,50.1,32.4,45.8,32.4z"/>
<path id="XMLID_6_" class="st2" d="M55.7,35.5h-0.3c-4.2,0-7.7-3.4-7.7-7.7v0c0-4.2,3.4-7.7,7.7-7.7h0.3c4.2,0,7.7,3.4,7.7,7.7v0
	C63.3,32.1,59.9,35.5,55.7,35.5z"/>
<path id="XMLID_7_" class="st2" d="M65.5,37.7h-0.3c-4.2,0-7.7-3.4-7.7-7.7v0c0-4.2,3.4-7.7,7.7-7.7h0.3c4.2,0,7.7,3.4,7.7,7.7v0
	C73.2,34.2,69.7,37.7,65.5,37.7z"/>
<path id="XMLID_8_" class="st2" d="M77,52.8h-0.3c-4.2,0-7.7-3.4-7.7-7.7v0c0-4.2,3.4-7.7,7.7-7.7H77c4.2,0,7.7,3.4,7.7,7.7v0
	C84.7,49.3,81.2,52.8,77,52.8z"/>
<path id="XMLID_11_" class="st4" d="M39.3,62h-8.2c-3.7,0-6.7-3-6.7-6.7v0c0-3.7,3-6.7,6.7-6.7h8.2c3.7,0,6.7,3,6.7,6.7v0
	C45.9,59,42.9,62,39.3,62z"/>
<rect id="XMLID_13_" x="26.5" y="51.8" class="st5" width="17.5" height="0.7"/>
<path id="XMLID_12_" class="st4" d="M62.3,62h-8.2c-3.7,0-6.7-3-6.7-6.7v0c0-3.7,3-6.7,6.7-6.7h8.2c3.7,0,6.7,3,6.7,6.7v0
	C68.9,59,65.9,62,62.3,62z"/>
<rect id="XMLID_14_" x="25.8" y="53.5" class="st6" width="18.2" height="0.7"/>
<rect id="XMLID_15_" x="25.8" y="55.3" class="st6" width="18.2" height="0.7"/>
<rect id="XMLID_16_" x="25.8" y="56.9" class="st6" width="18.2" height="0.7"/>
<rect id="XMLID_17_" x="27.1" y="59.2" class="st6" width="15.9" height="0.7"/>
<rect id="XMLID_22_" x="49.7" y="51.7" class="st6" width="16.9" height="0.7"/>
<rect id="XMLID_21_" x="49.2" y="53.4" class="st6" width="18.2" height="0.7"/>
<rect id="XMLID_20_" x="49.2" y="55.3" class="st6" width="18.2" height="0.7"/>
<rect id="XMLID_19_" x="49.2" y="56.8" class="st6" width="18.2" height="0.7"/>
<rect id="XMLID_18_" x="50" y="59" class="st6" width="16.1" height="0.7"/>
<path id="XMLID_23_" class="st7" d="M60.3,73.2l-12.7,4.4c-0.7,0.2-1.5-0.1-1.7-0.9l0,0C45.6,76,46,75.2,46.7,75l12.7-4.4
	c0.7-0.2,1.5,0.1,1.7,0.9l0,0C61.4,72.2,61,73,60.3,73.2z"/>
</svg>
