<?xml version="1.0" encoding="utf-8"?>
<!-- Generator: Adobe Illustrator 19.0.0, SVG Export Plug-In . SVG Version: 6.00 Build 0)  -->
<svg version="1.1" id="Warstwa_1" xmlns="http://www.w3.org/2000/svg" xmlns:xlink="http://www.w3.org/1999/xlink" x="0px" y="0px"
	 viewBox="0 0 100 100" style="enable-background:new 0 0 100 100;" xml:space="preserve">
<style type="text/css">
	.st0{fill:#E9D3E8;}
	.st1{opacity:0.37;fill:#848484;}
	.st2{fill:#EFCEBC;}
	.st3{fill:#38384C;}
	.st4{fill:#4A4949;}
	.st5{fill:#FFFFFF;}
</style>
<path id="XMLID_53_" class="st0" d="M96.8,50c0,10.8-3.7,20.7-9.8,28.6c-2.8,3.5-6,6.7-9.6,9.3c-6.5,4.7-14.2,7.7-22.5,8.6
	c-0.2,0-0.4,0-0.6,0c-1.4,0.1-2.8,0.2-4.3,0.2c-9.4,0-18.2-2.8-25.5-7.6c-3.9-2.6-7.5-5.7-10.5-9.3C7.3,71.8,3.3,61.3,3.3,50
	C3.3,24.2,24.2,3.3,50,3.3c22.5,0,41.3,15.9,45.8,37.1v0c0.5,2.5,0.8,5.1,1,7.7C96.7,48.8,96.8,49.4,96.8,50z"/>
<path id="XMLID_33_" class="st1" d="M96.8,50c0,10.8-3.7,20.7-9.8,28.6c-2.8,3.5-6,6.7-9.6,9.3c-6.5,4.7-14.2,7.7-22.5,8.6
	c-0.2,0-0.4,0-0.6,0L29.9,72.2l-1.3-1.3l25.1-25.2l23.7-23.7l1.4,1.3c0,0,0,0.1,0.1,0.1l2.6,2.6l14.3,14.3v0c0.5,2.5,0.8,5.1,1,7.7
	C96.7,48.8,96.8,49.4,96.8,50z"/>
<ellipse id="XMLID_1_" class="st2" cx="50.5" cy="49.1" rx="31.6" ry="30.4"/>
<path id="XMLID_11_" class="st3" d="M87,39.8c0,2.1-0.3,4-1,6H15c-0.6-1.9-1-3.9-1-6c0-14.4,16.3-26,36.5-26S87,25.5,87,39.8z"/>
<path id="XMLID_19_" class="st3" d="M24.5,42.6v46.6c-3.9-2.6-7.5-5.7-10.5-9.3V42.6c0-0.3,0-0.6,0.1-0.9c0.4-2.4,2.6-4.3,5.1-4.3
	c0.7,0,1.3,0.1,1.9,0.4c0.7,0.3,1.3,0.7,1.8,1.2C23.9,39.8,24.5,41.1,24.5,42.6z"/>
<path id="XMLID_18_" class="st3" d="M87,41.3v37.4c-2.8,3.5-6,6.7-9.6,9.3V41.3c0-1.7,0.9-3.2,2.3-4.1c0.7-0.5,1.6-0.7,2.5-0.7
	c1.3,0,2.5,0.5,3.4,1.4c0.8,0.8,1.4,2,1.4,3.2v0C87,41.2,87,41.2,87,41.3z"/>
<polygon id="XMLID_3_" class="st2" points="24.5,45.8 26.8,41.6 29.1,45.8 "/>
<polygon id="XMLID_4_" class="st2" points="72.8,45.8 75.1,41.6 77.3,45.8 "/>
<path id="XMLID_5_" class="st4" d="M44.8,53.1H28.6c-1,0-1.8-0.8-1.8-1.8v0c0-1,0.8-1.8,1.8-1.8h16.2c1,0,1.8,0.8,1.8,1.8v0
	C46.5,52.3,45.7,53.1,44.8,53.1z"/>
<path id="XMLID_6_" class="st4" d="M71,53.1H54.8c-1,0-1.8-0.8-1.8-1.8v0c0-1,0.8-1.8,1.8-1.8H71c1,0,1.8,0.8,1.8,1.8v0
	C72.8,52.3,72,53.1,71,53.1z"/>
<path id="XMLID_15_" class="st5" d="M57.7,71.1c0,2.8-4,5.1-8.8,5.1c-4.9,0-8.8-2.3-8.8-5.1c0-0.4,0.1-0.7,0.2-1.1
	c2.6,0.7,6,1.1,9.6,1.1c2.8,0,5.5-0.3,7.8-0.7C57.7,70.7,57.7,70.9,57.7,71.1z"/>
</svg>
