<?xml version="1.0" encoding="utf-8"?>
<!-- Generator: Adobe Illustrator 19.0.0, SVG Export Plug-In . SVG Version: 6.00 Build 0)  -->
<svg version="1.1" id="Warstwa_1" xmlns="http://www.w3.org/2000/svg" xmlns:xlink="http://www.w3.org/1999/xlink" x="0px" y="0px"
	 viewBox="0 0 100 100" style="enable-background:new 0 0 100 100;" xml:space="preserve">
<style type="text/css">
	.st0{fill:#6C6C6C;}
	.st1{opacity:0.37;fill:#848484;}
	.st2{fill:#1C1C1C;}
	.st3{fill:#C9BCAB;}
	.st4{fill:#CE949E;}
	.st5{fill:#FFFFFF;}
	.st6{font-family:'MyriadPro-Regular';}
	.st7{font-size:10.3901px;}
</style>
<path id="XMLID_43_" class="st0" d="M97.4,50c0,24.2-18.4,44.1-41.9,46.5c-1.6,0.2-3.2,0.3-4.8,0.3C24.8,96.8,3.9,75.8,3.9,50
	S24.8,3.3,50.7,3.3c25.2,0,45.7,19.9,46.7,44.9C97.4,48.8,97.4,49.4,97.4,50z"/>
<path id="XMLID_27_" class="st1" d="M97.4,50c0,24.2-18.4,44.1-41.9,46.5L31.3,72.3l-3.5-3.5L27,68l0.1-0.1l19.3-19.3L58,37
	l13.8-13.8l0.3-0.3l0,0l25.2,25.2C97.4,48.8,97.4,49.4,97.4,50z"/>
<path id="XMLID_19_" class="st2" d="M80.3,45.8c0,18.5-13.6,33.5-30.4,33.5c-16.8,0-30.4-15-30.4-33.5c0-4.9,1-9.6,2.7-13.8
	c1.3-3.2,3.1-6.1,5.2-8.7c5.6-6.8,13.6-11,22.5-11c8.9,0,16.9,4.2,22.5,11c2.1,2.6,3.9,5.5,5.2,8.8C79.3,36.2,80.3,40.9,80.3,45.8z"
	/>
<path id="XMLID_3_" class="st3" d="M70.5,48.6H30.8c-3.2,0-5.8-2.6-5.8-5.8v0c0-3.2,2.6-5.8,5.8-5.8h39.7c3.2,0,5.8,2.6,5.8,5.8v0
	C76.3,46,73.7,48.6,70.5,48.6z"/>
<path id="XMLID_6_" class="st2" d="M42.6,43.8H31.7c-0.9,0-1.7-0.7-1.7-1.7l0,0c0-0.9,0.7-1.7,1.7-1.7h10.9c0.9,0,1.7,0.7,1.7,1.7
	l0,0C44.3,43.1,43.5,43.8,42.6,43.8z"/>
<path id="XMLID_7_" class="st2" d="M66.7,43.8H55.8c-0.9,0-1.7-0.7-1.7-1.7l0,0c0-0.9,0.7-1.7,1.7-1.7h10.9c0.9,0,1.7,0.7,1.7,1.7
	l0,0C68.3,43.1,67.6,43.8,66.7,43.8z"/>
<path id="XMLID_13_" class="st4" d="M77.6,32H22.7c-0.1,0-0.3,0-0.4,0c1.3-3.2,3.1-6.1,5.2-8.7h45C74.5,25.8,76.3,28.8,77.6,32z"/>
<path id="XMLID_2_" class="st4" d="M28,26.9L28,26.9c-0.7,0.7-1.9,0.7-2.6,0l-4.8-4.8c-0.7-0.7-0.7-1.9,0-2.6l0,0
	c0.7-0.7,1.9-0.7,2.6,0l4.8,4.8C28.7,25.1,28.7,26.2,28,26.9z"/>
<path id="XMLID_8_" class="st4" d="M27.1,26.3L27.1,26.3c0.3,0.9-0.1,2-1.1,2.3L19.7,31c-0.9,0.3-2-0.1-2.3-1.1v0
	c-0.3-0.9,0.1-2,1.1-2.3l6.3-2.3C25.7,24.9,26.8,25.4,27.1,26.3z"/>
<text id="XMLID_9_" transform="matrix(1.1549 0 0 1 44.875 31.0586)" class="st5 st6 st7">JS</text>
<path id="XMLID_1_" class="st0" d="M56.3,71.4h-4.2c-2.4,0-4.3-1.9-4.3-4.3v0c0-2.4,1.9-4.3,4.3-4.3h4.2c2.4,0,4.3,1.9,4.3,4.3v0
	C60.6,69.5,58.6,71.4,56.3,71.4z"/>
</svg>
